<?xml version="1.0" standalone="no"?>
<!DOCTYPE svg PUBLIC "-//W3C//DTD SVG 20010904//EN"
 "http://www.w3.org/TR/2001/REC-SVG-20010904/DTD/svg10.dtd">
<svg version="1.0" xmlns="http://www.w3.org/2000/svg"
 width="500.000000pt" height="500.000000pt" viewBox="0 0 500.000000 500.000000"
 preserveAspectRatio="xMidYMid meet">
<metadata>
Created by potrace 1.14, written by Peter Selinger 2001-2017
</metadata>
<g transform="translate(0.000000,500.000000) scale(0.100000,-0.100000)"
fill="#000000" stroke="none">
<path d="M2250 4749 c-189 -23 -308 -49 -470 -101 -99 -31 -256 -96 -325 -134
-130 -70 -167 -92 -233 -136 -416 -280 -736 -704 -890 -1178 -36 -109 -67
-232 -77 -305 -4 -27 -9 -59 -12 -70 -18 -93 -25 -438 -11 -560 24 -206 82
-447 144 -592 8 -18 21 -50 30 -70 77 -181 220 -414 343 -557 80 -93 262 -268
346 -332 230 -177 488 -307 774 -389 90 -26 97 -28 191 -45 30 -6 66 -12 80
-15 68 -13 182 -20 345 -20 159 0 209 3 330 19 139 19 381 85 520 143 203 84
449 234 604 366 44 38 259 254 284 286 194 243 337 512 426 802 24 79 67 288
77 379 15 131 8 536 -10 592 -3 7 -7 31 -10 53 -25 192 -134 506 -242 696 -19
34 -34 65 -34 70 0 5 -4 9 -10 9 -5 0 -10 5 -10 10 0 15 -87 142 -161 235
-159 201 -404 417 -594 525 -155 89 -236 129 -390 191 -78 31 -267 83 -341 94
-21 4 -46 8 -55 11 -9 2 -32 7 -50 9 -19 2 -52 7 -74 10 -63 10 -423 13 -495
4z"/>
</g>
</svg>
