<?xml version="1.0" encoding="UTF-8"?><svg id="Calque_1" xmlns="http://www.w3.org/2000/svg" xmlns:xlink="http://www.w3.org/1999/xlink" viewBox="0 0 500 500"><defs><style>.cls-1{font-family:MyriadPro-Semibold, 'Myriad Pro';font-size:8.72px;font-weight:700;}.cls-1,.cls-2{fill:#fff;}.cls-3{clip-path:url(#clippath-1);}.cls-4{clip-path:url(#clippath);}.cls-5,.cls-6{fill:none;}.cls-6{stroke:#fff;stroke-miterlimit:10;stroke-width:1.02px;}</style><clipPath id="clippath"><rect class="cls-5" x="366.9" y="261.18" width="14.66" height="14.66"/></clipPath><clipPath id="clippath-1"><rect class="cls-5" x="366.9" y="261.18" width="14.66" height="14.66"/></clipPath></defs><g><path class="cls-2" d="M118.44,275.35v-48.09h9.82v39.77h19.71v8.31h-29.54Z"/><path class="cls-2" d="M176.63,275.35l-.75-3.09c-2.34,2.88-5.98,3.92-9.82,3.92-6.73,0-12.98-4.05-12.98-11.47,0-8.86,8.24-11.68,15.73-11.68,1.99,0,4.26,.28,6.53,.76v-.55c0-4.53-1.85-7.28-7.14-7.28-4.12,0-7.76,1.51-10.92,3.16l-2.61-7.01c4.6-2.27,10.17-3.71,15.53-3.71,10.03,0,14.91,5.84,14.91,15.25v21.71h-8.45Zm-1.3-15.73c-1.85-.41-3.43-.62-4.95-.62-3.57,0-7.76,1.31-7.76,5.56,0,3.16,2.61,4.81,5.5,4.81s5.15-1.24,7.21-3.09v-6.66Z"/><path class="cls-2" d="M202.66,239.21l.76,4.95c2.88-4.05,7.21-5.77,11.2-5.77s7.35,1.85,9.62,4.74c2.82,3.64,3.23,8.31,3.23,13.46v18.75h-9.75v-18.27c0-2.68-.07-5.7-1.1-7.76-.89-1.79-2.68-2.54-4.81-2.54-2.88,0-6.04,1.65-7.83,4.6v23.97h-9.76v-36.13h8.45Z"/><path class="cls-2" d="M262.98,275.35l-.82-4.46c-2.54,3.98-7.42,5.29-11.13,5.29-9.55,0-16.83-8.52-16.83-19.03s7.14-18.75,16.97-18.75c3.44,0,7.76,1.24,10.51,4.33v-18.89h9.75v51.52h-8.45Zm-1.3-24.66c-2.47-2.89-5.36-3.92-8.38-3.92-6.25,0-9.14,5.56-9.14,10.65s3.43,10.37,9,10.37c3.09,0,6.39-1.17,8.52-4.74v-12.36Z"/><path class="cls-2" d="M290.12,244.02c2.06-3.37,4.88-5.63,8.45-5.63,1.79,0,3.37,.34,4.67,.82l-2.34,8.52c-1.03-.55-2.2-.82-3.43-.82-2.82,0-5.36,1.58-6.8,3.98v24.46h-9.76v-36.13h8.45l.76,4.81Z"/><path class="cls-2" d="M306.61,234.2v-8.31h9.75v8.31h-9.75Zm0,41.15v-36.13h9.75v36.13h-9.75Z"/><path class="cls-2" d="M334.29,239.21l.76,4.95c2.88-4.05,7.21-5.77,11.2-5.77s7.35,1.85,9.62,4.74c2.82,3.64,3.23,8.31,3.23,13.46v18.75h-9.75v-18.27c0-2.68-.07-5.7-1.1-7.76-.89-1.79-2.68-2.54-4.81-2.54-2.88,0-6.04,1.65-7.83,4.6v23.97h-9.76v-36.13h8.45Z"/></g><g id="copyright"><g class="cls-4"><text class="cls-1" transform="translate(371.27 271.61)"><tspan x="0" y="0">C</tspan></text><g class="cls-3"><circle class="cls-6" cx="374.23" cy="268.51" r="6.82"/></g></g></g></svg>