<?xml version="1.0" encoding="utf-8"?>
<!-- Generator: Adobe Illustrator 26.5.0, SVG Export Plug-In . SVG Version: 6.00 Build 0)  -->
<svg version="1.1" id="Calque_1" xmlns="http://www.w3.org/2000/svg" xmlns:xlink="http://www.w3.org/1999/xlink" x="0px" y="0px"
	 viewBox="0 0 500 500" style="enable-background:new 0 0 500 500;" xml:space="preserve">
<style type="text/css">
	.st0{fill:#FFFFFF;}
</style>
<g>
	<path class="st0" d="M106.8,278v-53.2h10.9v44h21.8v9.2H106.8z"/>
	<path class="st0" d="M171.2,278l-0.8-3.4c-2.6,3.2-6.6,4.3-10.9,4.3c-7.4,0-14.4-4.5-14.4-12.7c0-9.8,9.1-12.9,17.4-12.9
		c2.2,0,4.7,0.3,7.2,0.8v-0.6c0-5-2.1-8.1-7.9-8.1c-4.6,0-8.6,1.7-12.1,3.5l-2.9-7.8c5.1-2.5,11.2-4.1,17.2-4.1
		c11.1,0,16.5,6.5,16.5,16.9v24H171.2z M169.7,260.6c-2.1-0.5-3.8-0.7-5.5-0.7c-4,0-8.6,1.4-8.6,6.2c0,3.5,2.9,5.3,6.1,5.3
		c3.1,0,5.7-1.4,8-3.4V260.6z"/>
	<path class="st0" d="M266.7,278l-0.9-4.9c-2.8,4.4-8.2,5.9-12.3,5.9c-10.6,0-18.6-9.4-18.6-21c0-11.2,7.9-20.7,18.8-20.7
		c3.8,0,8.6,1.4,11.6,4.8V221h10.8v57H266.7z M265.3,250.8c-2.7-3.2-5.9-4.3-9.3-4.3c-6.9,0-10.1,6.2-10.1,11.8
		c0,5.9,3.8,11.5,10,11.5c3.4,0,7.1-1.3,9.4-5.2V250.8z"/>
	<path class="st0" d="M296.7,243.4c2.3-3.7,5.4-6.2,9.3-6.2c2,0,3.7,0.4,5.2,0.9l-2.6,9.4c-1.1-0.6-2.4-0.9-3.8-0.9
		c-3.1,0-5.9,1.7-7.5,4.4V278h-10.8v-40h9.3L296.7,243.4z"/>
	<path class="st0" d="M315,232.5v-9.2h10.8v9.2H315z M315,278v-40h10.8v40H315z"/>
	<g>
		<path class="st0" d="M371.9,242.5c-2.5-3.2-6.3-5.2-10.6-5.2c-4.4,0-8.6,1.9-11.8,6.4v-5.5h-6.9v40h6.9v-22.7
			c0-4.6,3.5-8.6,8.1-8.9c0.2,0,0.4,0,0.5,0c2.4,0,4.3,0.8,5.3,2.8c1.1,2.3,1.2,5.6,1.2,8.6v20.2h10.8v-20.7
			C375.4,251.7,375,246.5,371.9,242.5z M337.4,278.1h-2.2v-40h2.2V278.1z"/>
	</g>
	<g>
		<path class="st0" d="M225.9,242.5c-2.5-3.2-6.3-5.2-10.6-5.2c-4.4,0-8.6,1.9-11.8,6.4v-5.5h-6.9v40h6.9v-22.7
			c0-4.6,3.5-8.6,8.1-8.9c0.2,0,0.4,0,0.5,0c2.4,0,4.3,0.8,5.3,2.8c1.1,2.3,1.2,5.6,1.2,8.6v20.2h10.8v-20.7
			C229.4,251.7,229,246.5,225.9,242.5z M191.4,278.1h-2.2v-40h2.2V278.1z"/>
	</g>
	<circle class="st0" cx="388.4" cy="274" r="4.8"/>
</g>
</svg>
