<?xml version="1.0" encoding="utf-8"?>
<!-- Generator: Adobe Illustrator 26.5.0, SVG Export Plug-In . SVG Version: 6.00 Build 0)  -->
<svg version="1.1" id="Calque_1" xmlns="http://www.w3.org/2000/svg" xmlns:xlink="http://www.w3.org/1999/xlink" x="0px" y="0px"
	 viewBox="0 0 500 500" style="enable-background:new 0 0 500 500;" xml:space="preserve">
<style type="text/css">
	.st0{fill:#FFFFFF;}
</style>
<g>
	<path class="st0" d="M70,285.3v-66.9h13.7v55.4h27.4v11.5H70z"/>
	<path class="st0" d="M150.9,285.3l-1-4.3c-3.2,4-8.3,5.5-13.7,5.5c-9.3,0-18-5.6-18-16c0-12.3,11.4-16.3,21.8-16.3
		c2.7,0,6,0.4,9.1,1v-0.7c0-6.3-2.6-10.2-9.9-10.2c-5.7,0-10.8,2.1-15.1,4.3l-3.6-9.7c6.5-3.1,14.2-5.2,21.6-5.2
		c13.9,0,20.7,8.1,20.7,21.2V285h-11.9V285.3z M149.1,263.4c-2.6-0.6-4.7-0.9-6.8-0.9c-5,0-10.8,1.9-10.8,7.7c0,4.3,3.6,6.7,7.7,6.7
		c4,0,7.2-1.7,10.1-4.3v-9.2H149.1z"/>
	<path class="st0" d="M271,285.3l-1.1-6.2c-3.5,5.6-10.3,7.3-15.5,7.3c-13.3,0-23.5-11.8-23.5-26.4c0-14.2,9.9-26.1,23.6-26.1
		c4.7,0,10.8,1.7,14.6,6v-26.3h13.5v71.6H271V285.3z M269.2,251c-3.5-4-7.4-5.5-11.7-5.5c-8.7,0-12.7,7.7-12.7,14.8
		c0,7.3,4.7,14.4,12.5,14.4c4.3,0,8.9-1.6,11.8-6.6V251z"/>
	<path class="st0" d="M308.7,241.7c2.9-4.7,6.8-7.8,11.8-7.8c2.5,0,4.7,0.5,6.5,1.1l-3.2,11.8c-1.5-0.7-3.1-1.1-4.7-1.1
		c-4,0-7.4,2.2-9.4,5.6v34h-13.7V235h11.8L308.7,241.7z"/>
	<path class="st0" d="M331.7,228v-11.5h13.5V228H331.7z M331.7,285.3V235h13.5v50.3H331.7z"/>
	<g>
		<path class="st0" d="M403.2,240.6c-3.1-4-7.9-6.6-13.4-6.6c-5.6,0-10.8,2.4-14.8,8.1v-7h-8.7v50.3h8.7v-28.6
			c0-5.8,4.5-10.8,10.2-11.2c0.2,0,0.5,0,0.6,0c3,0,5.5,1,6.7,3.5c1.5,2.9,1.5,7.1,1.5,10.8v25.4h13.7v-26.1
			C407.7,252.1,407,245.7,403.2,240.6z M359.9,285.4H357v-50.3h2.9V285.4z"/>
	</g>
	<g>
		<path class="st0" d="M219.7,240.6c-3.1-4-7.9-6.6-13.4-6.6c-5.6,0-10.8,2.4-14.8,8.1v-7h-8.7v50.3h8.7v-28.6
			c0-5.8,4.5-10.8,10.2-11.2c0.2,0,0.5,0,0.6,0c3,0,5.5,1,6.7,3.5c1.5,2.9,1.5,7.1,1.5,10.8v25.4h13.5v-26.1
			C224.2,252.1,223.6,245.7,219.7,240.6z M176.4,285.4h-2.9v-50.3h2.9V285.4z"/>
	</g>
	<circle class="st0" cx="423.9" cy="280.2" r="6.1"/>
</g>
</svg>
