<?xml version="1.0" encoding="UTF-8"?><svg id="Calque_1" xmlns="http://www.w3.org/2000/svg" xmlns:xlink="http://www.w3.org/1999/xlink" viewBox="0 0 500 500"><defs><style>.cls-1{fill:#fff;}</style></defs><g><g><path class="cls-1" d="M411.01,262.65c-.18,.09-.58,.22-1.09,.22-1.14,0-1.89-.78-1.89-1.94s.8-2.02,2.04-2.02c.41,0,.77,.1,.96,.2l-.15,.53c-.17-.09-.43-.18-.81-.18-.86,0-1.34,.65-1.34,1.43,0,.88,.56,1.42,1.32,1.42,.39,0,.65-.1,.84-.18l.12,.52Z"/><path class="cls-1" d="M409.79,265.71c-2.74,0-4.97-2.23-4.97-4.97s2.23-4.97,4.97-4.97,4.97,2.23,4.97,4.97-2.23,4.97-4.97,4.97Zm0-9.27c-2.37,0-4.3,1.93-4.3,4.3s1.93,4.3,4.3,4.3,4.3-1.93,4.3-4.3-1.93-4.3-4.3-4.3Z"/></g><path class="cls-1" d="M197.13,265.55v-42.72h8.16v35.82h16.37v6.9h-24.53Z"/><path class="cls-1" d="M244.36,265.55v-2.57c-1.94,2.4-4.5,3.25-7.7,3.25-5.59,0-10.78-3.37-10.78-9.53,0-7.36,6.85-9.7,13.06-9.7,1.65,0,3.54,.23,5.42,.63v-.46c0-3.76-1.54-6.05-5.93-6.05-3.42,0-6.45,1.26-9.07,2.62l-2.17-5.82c3.82-1.88,8.44-3.08,12.89-3.08,8.33,0,12.38,4.85,12.38,12.66v18.03h-8.1Zm0-13.06c-1.54-.34-2.85-.51-4.11-.51-2.97,0-6.45,1.08-6.45,4.62,0,2.62,2.17,3.99,4.56,3.99s4.28-1.03,5.99-2.57v-5.53Z"/><path class="cls-1" d="M268.13,235.55v4.11c2.4-3.37,5.56-4.79,8.87-4.79s6.1,1.54,7.99,3.94c2.34,3.02,2.68,6.9,2.68,11.18v15.57h-8.1v-15.17c0-2.23-.06-4.74-.91-6.45-.74-1.48-2.23-2.11-3.99-2.11-2.4,0-5.02,1.37-6.5,3.82v19.91h-8.1v-30.01h8.07Z"/><path class="cls-1" d="M316.11,265.55v-3.71c-2.11,3.31-5.79,4.39-8.87,4.39-7.93,0-13.98-7.07-13.98-15.8s5.93-15.57,14.09-15.57c2.85,0,6.45,1.03,8.73,3.59v-15.69h8.1v42.79h-8.07Zm-.03-20.48c-2.05-2.4-4.45-3.25-6.96-3.25-5.19,0-7.59,4.62-7.59,8.84s2.85,8.61,7.47,8.61c2.57,0,5.31-.97,7.07-3.94v-10.27Z"/><path class="cls-1" d="M340.16,239.54c1.71-2.8,3.59-4.68,6.56-4.68,1.48,0,2.8,.29,3.88,.68l-1.94,7.07c-.86-.46-1.83-.68-2.85-.68-2.34,0-4.45,1.31-5.65,3.31v20.31h-8.1v-30.01h8.1v3.99Z"/><path class="cls-1" d="M353.4,235.55v30.01h8.1v-30.01h-8.1Z"/><path class="cls-1" d="M377.49,235.55v4.11c2.4-3.37,5.52-4.79,8.83-4.79s6.1,1.54,7.99,3.94c2.34,3.02,2.68,6.9,2.68,11.18v15.57h-8.1v-15.17c0-2.23-.06-4.74-.91-6.45-.74-1.48-2.23-2.11-3.99-2.11-2.4,0-5.02,1.37-6.5,3.82v19.91h-8.1v-30.01h8.11Z"/></g><image width="500" height="500" transform="translate(52.45 187.28) scale(.23)" xlink:href="../../../../../Downloads/Unbenannt-1.png"/></svg>